#N canvas 102 0 575 653 10;
#N canvas 0 0 450 300 (subpatch) 0;
#X array clip01R 1.05417e+07 float 2;
#X coords 0 1 1.05417e+07 -1 200 25 1;
#X restore 296 -12 graph;
#N canvas 0 0 450 300 (subpatch) 0;
#X array clip01L 1.05417e+07 float 2;
#X coords 0 1 1.05417e+07 -1 200 25 1;
#X restore 296 -52 graph;
#X text 35 -76 load;
#X obj 40 -57 bng 15 250 50 0 empty empty empty 17 7 0 10 -262144 -1
-1;
#X text 136 -140 stop;
#X obj 146 -125 bng 15 250 50 0 empty empty empty 17 7 0 10 -262144
-1 -1;
#N canvas 0 0 450 300 (subpatch) 0;
#X array clip02R 8.35489e+06 float 2;
#X coords 0 1 8.35489e+06 -1 200 25 1;
#X restore 295 242 graph;
#N canvas 0 0 450 300 (subpatch) 0;
#X array clip02L 8.35489e+06 float 2;
#X coords 0 1 8.35489e+06 -1 200 25 1;
#X restore 295 202 graph;
#X obj 11 -56 bng 15 250 50 0 empty empty empty 17 7 0 10 -262144 -1
-1;
#X text 3 -75 play;
#X obj 176 -96 t b f;
#X msg 201 -73 0;
#X text 44 118 load;
#X obj 49 137 bng 15 250 50 0 empty empty empty 17 7 0 10 -262144 -1
-1;
#X obj 20 138 bng 15 250 50 0 empty empty empty 17 7 0 10 -262144 -1
-1;
#X text 12 119 play;
#N canvas 691 66 636 541 player 1;
#X obj 376 386 *~;
#X obj 232 552 dac~;
#X obj 436 382 tgl 15 0 empty empty empty 17 7 0 10 -262144 -1 -1 1
1;
#X obj 436 404 metro 50;
#X obj 437 424 snapshot~;
#X floatatom 436 444 5 0 0 0 - - -;
#X obj 407 472 /;
#X floatatom 433 491 5 0 0 0 - - -;
#X obj 410 513 hsl 200 15 0 1 0 0 empty empty empty -2 -8 0 10 -262144
-1 -1 19900 1;
#X msg 234 169 0;
#X obj 195 169 bng 15 250 50 0 empty empty empty 17 7 0 10 -262144
-1 -1;
#X obj 408 544 s seek;
#X obj 414 280 r seek;
#X floatatom 372 274 5 0 0 0 - - -;
#X obj 370 310 tof/phasorshot~;
#X obj 277 167 bng 15 250 50 0 empty empty empty 17 7 0 10 -262144
-1 -1;
#X obj 293 276 t b b;
#X msg 317 315 0;
#X text 280 154 stop;
#X text 237 155 pause;
#X obj 201 54 inlet;
#X obj 239 54 inlet;
#X obj 280 56 inlet;
#X obj 451 337 outlet;
#X text 201 154 resume;
#X obj 153 54 inlet;
#X obj 159 184 bng 15 250 50 0 empty empty empty 17 7 0 10 -262144
-1 -1;
#X obj 157 203 t b b;
#X text 160 169 play;
#X obj 113 55 inlet;
#X msg 138 458 set \$1;
#X obj 63 56 inlet;
#X obj 231 501 tabread4~;
#X obj 254 521 tabread4~;
#X msg 196 449 set \$1;
#N canvas 268 260 450 300 load-clip 0;
#X obj 102 232 outlet;
#X obj 84 36 openpanel;
#X obj 79 16 bng 15 250 50 0 empty empty empty 17 7 0 10 -262144 -1
-1;
#X obj 84 131 soundfiler;
#X obj 216 -7 inlet;
#X obj 277 -9 inlet;
#X obj 99 68 pack s s s;
#X msg 84 111 read -resize -maxsize 1e+15 \$1 \$2 \$3;
#X connect 1 0 6 0;
#X connect 2 0 1 0;
#X connect 3 0 0 0;
#X connect 4 0 6 1;
#X connect 4 0 2 0;
#X connect 5 0 6 2;
#X connect 6 0 7 0;
#X connect 7 0 3 0;
#X restore 348 177 pd load-clip;
#X obj 102 223 unpack s s f;
#X obj 369 136 unpack s s;
#X obj 400 219 s sampleSize;
#X obj 317 247 expr 44100 / $f1;
#X obj 111 162 t b l;
#X text 104 42 load;
#X text 31 44 setup and play;
#X connect 0 0 4 0;
#X connect 0 0 32 0;
#X connect 0 0 33 0;
#X connect 2 0 3 0;
#X connect 3 0 4 0;
#X connect 4 0 5 0;
#X connect 5 0 6 0;
#X connect 6 0 7 0;
#X connect 7 0 8 0;
#X connect 8 0 11 0;
#X connect 9 0 14 0;
#X connect 10 0 13 0;
#X connect 12 0 14 1;
#X connect 13 0 14 0;
#X connect 14 0 0 0;
#X connect 14 2 23 0;
#X connect 15 0 16 0;
#X connect 16 0 9 0;
#X connect 16 1 17 0;
#X connect 17 0 14 1;
#X connect 20 0 10 0;
#X connect 21 0 9 0;
#X connect 22 0 15 0;
#X connect 25 0 26 0;
#X connect 26 0 27 0;
#X connect 27 0 10 0;
#X connect 27 1 17 0;
#X connect 29 0 37 0;
#X connect 30 0 32 0;
#X connect 31 0 40 0;
#X connect 32 0 1 0;
#X connect 33 0 1 1;
#X connect 34 0 33 0;
#X connect 35 0 9 0;
#X connect 35 0 38 0;
#X connect 36 0 30 0;
#X connect 36 1 34 0;
#X connect 36 2 39 0;
#X connect 36 2 0 1;
#X connect 36 2 6 1;
#X connect 37 0 35 0;
#X connect 37 1 35 1;
#X connect 39 0 13 0;
#X connect 40 0 26 0;
#X connect 40 1 36 0;
#X coords 0 -1 1 1 200 60 1 100 100;
#X restore 188 389 pd player;
#N canvas 766 34 450 470 clip 0;
#X floatatom 131 120 12 0 0 0 - - -;
#X msg 99 167 list clip01L clip01R \$1;
#X msg 205 51 list clip01L clip01R;
#X obj 112 61 r sampleSize;
#X obj 117 143 spigot;
#X obj 38 123 tgl 15 0 empty empty empty 17 7 0 10 -262144 -1 -1 0
1;
#X msg 73 79 1;
#X obj 91 31 t b f f;
#X msg 33 186 0;
#X obj 72 -10 inlet;
#X obj 191 -11 inlet;
#X text 68 -24 play;
#X text 193 -26 load;
#X obj 202 292 outlet;
#X obj 11 -9 inlet;
#X obj 31 219 outlet;
#X text 32 233 off;
#X text 13 -22 off;
#X msg 14 70 0;
#X obj 258 223 outlet;
#X text 257 239 isOn;
#X obj 145 96 spigot;
#X obj 231 129 tgl 15 0 empty empty empty 17 7 0 10 -262144 -1 -1 0
1;
#X msg 242 103 1;
#X obj 184 203 t b l b;
#X obj 237 79 t l b;
#X obj 126 317 outlet;
#X msg 67 173 0;
#X connect 0 0 4 0;
#X connect 0 0 27 0;
#X connect 1 0 26 0;
#X connect 2 0 25 0;
#X connect 3 0 21 0;
#X connect 4 0 1 0;
#X connect 5 0 4 1;
#X connect 5 0 19 0;
#X connect 6 0 5 0;
#X connect 7 0 0 0;
#X connect 7 1 6 0;
#X connect 7 2 8 0;
#X connect 8 0 15 0;
#X connect 9 0 7 0;
#X connect 10 0 2 0;
#X connect 14 0 18 0;
#X connect 18 0 5 0;
#X connect 21 0 0 0;
#X connect 22 0 21 1;
#X connect 23 0 22 0;
#X connect 24 1 13 0;
#X connect 25 0 24 0;
#X connect 25 1 23 0;
#X connect 27 0 22 0;
#X restore 50 -13 pd clip;
#X floatatom 111 28 5 0 0 0 - - -;
#X obj 192 465 bng 15 250 50 0 empty empty empty 17 7 0 10 -262144
-1 -1;
#N canvas 766 34 450 470 clip 0;
#X floatatom 131 120 12 0 0 0 - - -;
#X obj 112 61 r sampleSize;
#X obj 117 143 spigot;
#X obj 38 123 tgl 15 0 empty empty empty 17 7 0 10 -262144 -1 -1 1
1;
#X msg 73 79 1;
#X obj 91 31 t b f f;
#X msg 33 186 0;
#X obj 72 -10 inlet;
#X obj 191 -11 inlet;
#X text 68 -24 play;
#X text 193 -26 load;
#X obj 202 292 outlet;
#X obj 11 -9 inlet;
#X obj 31 219 outlet;
#X text 32 233 off;
#X text 13 -22 off;
#X msg 14 70 0;
#X obj 258 223 outlet;
#X text 257 239 isOn;
#X obj 145 96 spigot;
#X obj 231 129 tgl 15 0 empty empty empty 17 7 0 10 -262144 -1 -1 0
1;
#X msg 242 103 1;
#X obj 184 203 t b l b;
#X obj 237 79 t l b;
#X obj 126 317 outlet;
#X msg 67 173 0;
#X msg 205 51 list clip02L clip02R;
#X msg 99 167 list clip02L clip02R \$1;
#X connect 0 0 2 0;
#X connect 0 0 25 0;
#X connect 1 0 19 0;
#X connect 2 0 27 0;
#X connect 3 0 2 1;
#X connect 3 0 17 0;
#X connect 4 0 3 0;
#X connect 5 0 0 0;
#X connect 5 1 4 0;
#X connect 5 2 6 0;
#X connect 6 0 13 0;
#X connect 7 0 5 0;
#X connect 8 0 26 0;
#X connect 12 0 16 0;
#X connect 16 0 3 0;
#X connect 19 0 0 0;
#X connect 20 0 19 1;
#X connect 21 0 20 0;
#X connect 22 1 11 0;
#X connect 23 0 22 0;
#X connect 23 1 21 0;
#X connect 25 0 20 0;
#X connect 26 0 23 0;
#X connect 27 0 24 0;
#X restore 18 174 pd clip;
#X floatatom 75 201 5 0 0 0 - - -;
#X obj 411 84 route;
#X connect 3 0 17 2;
#X connect 5 0 16 5;
#X connect 5 0 10 0;
#X connect 5 0 17 0;
#X connect 5 0 20 0;
#X connect 8 0 17 1;
#X connect 10 0 16 5;
#X connect 10 1 11 0;
#X connect 13 0 20 2;
#X connect 14 0 20 1;
#X connect 16 0 19 0;
#X connect 17 0 20 0;
#X connect 17 1 16 0;
#X connect 17 2 16 1;
#X connect 17 3 18 0;
#X connect 20 0 17 0;
#X connect 20 1 16 0;
#X connect 20 2 16 1;
#X connect 20 3 21 0;
